<svg xmlns="http://www.w3.org/2000/svg" viewBox="0 0 350 70.02"><defs><style>.cls-1{fill:#224145;}</style></defs><g id="Layer_2" data-name="Layer 2"><g id="Layer_1-2" data-name="Layer 1"><path class="cls-1" d="M9.79,13.05a11.07,11.07,0,0,0,2.84,7.73,27.67,27.67,0,0,0,7.14,5.53,82.77,82.77,0,0,0,9.31,4.41,77,77,0,0,1,9.3,4.45,27.44,27.44,0,0,1,7.14,5.68,11.68,11.68,0,0,1,2.84,8,23.38,23.38,0,0,1-1.47,8.37,17.52,17.52,0,0,1-4.5,6.7,21.43,21.43,0,0,1-7.54,4.46A31.82,31.82,0,0,1,24.18,70,48.59,48.59,0,0,1,13.26,69,39.72,39.72,0,0,1,5.78,66.5,25.29,25.29,0,0,1,0,63l4.5-7.34A18.45,18.45,0,0,0,8.42,61.8a22,22,0,0,0,6,4.26A21.59,21.59,0,0,0,24.18,68a20.9,20.9,0,0,0,6.76-1,16.42,16.42,0,0,0,5.23-2.84,12.56,12.56,0,0,0,3.38-4.21,11.57,11.57,0,0,0,1.18-5.14,12.62,12.62,0,0,0-1.62-6.61,16.21,16.21,0,0,0-4.26-4.65,30.28,30.28,0,0,0-6-3.42c-2.25-1-4.55-2-6.9-2.89s-4.65-2-6.9-3a27.32,27.32,0,0,1-6-3.86,17.67,17.67,0,0,1-4.26-5.34,15.91,15.91,0,0,1-1.62-7.49A18.7,18.7,0,0,1,4.75,9.23a13.66,13.66,0,0,1,4.5-5.34A19.31,19.31,0,0,1,16.1,1,41,41,0,0,1,24.87.12a55.4,55.4,0,0,1,8.46.59,59.32,59.32,0,0,1,6.61,1.37c2.16.59,4.11,1.21,5.88,1.86l-3,6.76a13.24,13.24,0,0,0-3.72-4.21,20,20,0,0,0-5.58-3,25.32,25.32,0,0,0-8.81-1.32Q18.12,2.18,14,5.12A9.2,9.2,0,0,0,9.79,13.05Z"/><path class="cls-1" d="M113.73,46H84.32L75,70h-2.3L100,0h5.5l25.81,70h-8.71Zm-.7-2.1L99.43,7.2,85.12,43.92Z"/><path class="cls-1" d="M182.15,0a42,42,0,0,1,11.22,1.6,29.07,29.07,0,0,1,10.68,5.55,29.71,29.71,0,0,1,8,10.76q3.16,6.8,3.16,17.1t-3.16,17.16a29.72,29.72,0,0,1-8,10.7,28.77,28.77,0,0,1-10.68,5.55A42,42,0,0,1,182.15,70H155.7V0Zm-.84,67.92a31.28,31.28,0,0,0,9.2-1.4,19.53,19.53,0,0,0,8.25-5,26.62,26.62,0,0,0,6-10Q207,45,207,35t-2.11-16.4a25.67,25.67,0,0,0-5.65-10.06,19,19,0,0,0-8.2-5.05,33.75,33.75,0,0,0-9.75-1.4H163.9V67.92Z"/><path class="cls-1" d="M247.78,2.1V31h30v2.1h-30V67.92h37V70H239.58V0h45.21V2.1Z"/><path class="cls-1" d="M345.4,55.32a18.81,18.81,0,0,1-4,6.3A22.74,22.74,0,0,1,335.25,66a22.07,22.07,0,0,1-10,2h-7.94V0h-8.2V70h16.14a48.78,48.78,0,0,0,11.16-1.1c1.32-.31,2.53-.65,3.65-1a31.63,31.63,0,0,0,4-1.5,25.76,25.76,0,0,0,5.9-3.6Z"/></g></g></svg>